<svg width="1439" height="134" viewBox="0 0 1439 134" fill="none" xmlns="http://www.w3.org/2000/svg">
<g opacity="0.3">
<path fill-rule="evenodd" clip-rule="evenodd" d="M0 0L47.9667 7.30951C95.9333 14.619 191.867 29.238 287.8 29.238C383.733 29.238 479.667 14.619 575.6 21.9285C671.533 29.238 767.467 58.4761 863.4 63.3491C959.333 68.2221 1055.27 48.7301 1151.2 43.8571C1247.13 38.9841 1343.07 48.7301 1391.03 53.6031L1439 58.4761V131.571H1391.03C1343.07 131.571 1247.13 131.571 1151.2 131.571C1055.27 131.571 959.333 131.571 863.4 131.571C767.467 131.571 671.533 131.571 575.6 131.571C479.667 131.571 383.733 131.571 287.8 131.571C191.867 131.571 95.9333 131.571 47.9667 131.571H0V0Z" fill="#F4F4F8" fill-opacity="0.5"/>
<path opacity="0.5" fill-rule="evenodd" clip-rule="evenodd" d="M1439 0L1379.04 22.2294C1319.08 44.4587 1199.17 89.4007 1079.25 83.6017C959.333 78.286 839.417 22.2294 719.5 19.8131C599.583 16.9136 479.667 67.1713 359.75 89.4007C239.833 111.63 119.917 105.831 59.9584 103.415L0 100.515V133.859H59.9584C119.917 133.859 239.833 133.859 359.75 133.859C479.667 133.859 599.583 133.859 719.5 133.859C839.417 133.859 959.333 133.859 1079.25 133.859C1199.17 133.859 1319.08 133.859 1379.04 133.859H1439V0Z" fill="#F4F4F8"/>
</g>
</svg>
